<?xml version="1.0" encoding="UTF-8"?>
<svg id="Layer_2" data-name="Layer 2" xmlns="http://www.w3.org/2000/svg" xmlns:xlink="http://www.w3.org/1999/xlink" viewBox="0 0 482.69 504.68">
  <defs>
    <style>
      .cls-1 {
        fill: url(#linear-gradient);
        stroke-width: 0px;
      }
    </style>
    <linearGradient id="linear-gradient" x1="-.4" y1="16.62" x2="454.52" y2="348.84" gradientUnits="userSpaceOnUse">
      <stop offset=".41" stop-color="#f37321"/>
      <stop offset=".76" stop-color="#ed519d"/>
    </linearGradient>
  </defs>
  <g id="Layer_1-2" data-name="Layer 1">
    <path class="cls-1" d="m477.57,54.67l-32.96,50.24-3.8,5.58-141.67,210.54v100.59c0,45.88-37.18,83.06-83.06,83.06h-31.41v-97.24l-98.05-115.39c-10.77-12.65-9.22-31.65,3.43-42.41,5.67-4.82,12.59-7.17,19.48-7.17,8.52,0,17,3.62,22.95,10.63l53.47,62.94,26.79,31.9,22.4-31.9,140.1-205.52h-52.39c-.39-.02-.81-.02-1.2-.02s-.81,0-1.2.02c-12.26.64-22.02,10.79-22.02,23.2v43.92c0,7.63-2.34,15.07-6.7,21.34l-76.71,110.04-21.44-24.67c-5.91-6.78-9.16-15.49-9.16-24.48v-122.75c.17-1.1.25-2.21.25-3.37s-.08-2.27-.25-3.37c-1.63-11.23-11.29-19.85-22.99-19.85H0v-43.3C0,30.1,30.1,0,67.22,0h382.22c12.98,0,27.85,8.73,32.56,24.87,2.94,10.05-4.42,29.79-4.42,29.79Z"/>
  </g>
</svg>